<svg width="38" height="23" viewBox="0 0 38 23" fill="none" xmlns="http://www.w3.org/2000/svg">
<path d="M6.73011 3.43075C6.73011 2.65424 7.00473 1.98662 7.55398 1.42791C8.11269 0.869198 8.78504 0.589842 9.57102 0.589842C10.3475 0.589842 11.0104 0.869199 11.5597 1.42791C12.1184 1.98662 12.3977 2.65424 12.3977 3.43075C12.3977 4.20727 12.1184 4.87488 11.5597 5.43359C11.0104 5.9923 10.3475 6.27166 9.57102 6.27166C9.05019 6.27166 8.57197 6.13909 8.13636 5.87393C7.71023 5.61825 7.36932 5.27734 7.11363 4.85121C6.85795 4.42507 6.73011 3.95158 6.73011 3.43075ZM22.6108 3.43075C22.6108 2.65424 22.8902 1.98662 23.4489 1.42791C24.0076 0.869199 24.6752 0.589843 25.4517 0.589843C26.2282 0.589843 26.8911 0.869199 27.4403 1.42791C27.9991 1.98662 28.2784 2.65424 28.2784 3.43075C28.2784 4.20727 27.9991 4.87488 27.4403 5.43359C26.8911 5.99231 26.2282 6.27166 25.4517 6.27166C24.9309 6.27166 24.4527 6.13909 24.017 5.87393C23.5909 5.61825 23.25 5.27734 22.9943 4.85121C22.7386 4.42507 22.6108 3.95159 22.6108 3.43075ZM19.0739 13.1964C22.6345 13.1964 25.911 13.6651 28.9034 14.6026C31.8958 15.5401 34.6562 16.9085 37.1847 18.7077L37.1847 22.5998C36.2472 21.899 35.0966 21.2456 33.733 20.6396C32.3693 20.0335 30.8731 19.5032 29.2443 19.0487C27.625 18.5941 25.9441 18.239 24.2017 17.9833C22.4687 17.7276 20.7595 17.5998 19.0739 17.5998C16.8201 17.5998 14.5379 17.8223 12.2273 18.2674C9.91666 18.7125 7.77178 19.3138 5.79261 20.0714C3.81344 20.829 2.19886 21.6718 0.948861 22.5998L0.948862 18.7077C3.47727 16.9085 6.23769 15.5401 9.23011 14.6026C12.2225 13.6651 15.5038 13.1964 19.0739 13.1964Z" fill="#CDCDCD"/>
</svg>
